<svg width="105" height="32" viewBox="0 0 105 32" fill="none" xmlns="http://www.w3.org/2000/svg">
<path d="M100.921 8.81024C99.8627 8.81024 99.1345 7.93189 99.1345 6.92455C99.1345 5.89652 99.843 5.03836 100.901 5.03836C101.968 5.03836 102.697 5.91622 102.697 6.92455C102.697 7.95208 101.988 8.81024 100.921 8.81024ZM100.901 10.5566C103.056 10.5566 104.673 8.92988 104.673 6.92455C104.673 4.89853 103.076 3.2915 100.921 3.2915C98.7652 3.2915 97.1478 4.91822 97.1478 6.92455C97.1478 8.95007 98.745 10.5566 100.901 10.5566ZM92.6079 6.90436V5.05805H93.5158C94.2144 5.05805 94.6334 5.3771 94.6334 5.97628C94.6334 6.54495 94.2144 6.90436 93.5261 6.90436H92.6079ZM90.672 10.4168H92.6079V8.42129H93.566C95.302 8.42129 96.5698 7.55279 96.5698 5.90637C96.5698 4.33972 95.432 3.43133 93.6655 3.43133H90.672V10.4168ZM86.2512 10.5468C88.2368 10.5468 89.5243 9.55862 89.5243 7.30366V3.43133H87.5584V7.36323C87.5584 8.34104 87.0498 8.8004 86.2714 8.8004C85.493 8.8004 84.9834 8.32134 84.9834 7.3135V3.43133H83.0174V7.35338C83.0174 9.53892 84.265 10.5468 86.2512 10.5468ZM77.8684 6.78423V5.10778H79.1358C79.7847 5.10778 80.1835 5.38743 80.1835 5.9364C80.1835 6.46519 79.8044 6.78423 79.1456 6.78423H77.8684ZM75.9325 10.4168H77.8684V8.30116H78.7168L80.1234 10.4168H82.3592L80.693 7.98211C81.5606 7.61285 82.1292 6.90436 82.1292 5.83646C82.1292 5.12797 81.92 4.58884 81.5108 4.1797C81.0421 3.71099 80.3036 3.43133 79.2357 3.43133H75.9325V10.4168ZM71.8209 10.5566C73.0882 10.5566 74.1162 10.0879 74.8548 9.47886V6.33521H71.6417V7.75268H73.0188V8.60051C72.7293 8.79055 72.3699 8.89001 71.9012 8.89001C70.7934 8.89001 70.0051 8.08157 70.0051 6.95409C70.0051 5.86649 70.7835 5.01817 71.7909 5.01817C72.4797 5.01817 72.9789 5.25745 73.4777 5.67694L74.6155 4.30968C73.877 3.67111 73.0085 3.2915 71.7815 3.2915C69.6157 3.2915 68.019 4.88819 68.019 6.92455C68.019 9.05986 69.6457 10.5566 71.8209 10.5566Z" fill="black"/>
<path d="M85.2158 32.0001H97.8244V27.534H89.805V13.6108H85.2158V32.0001ZM70.372 32.0001H82.9805V27.534H74.9611V13.6108H70.372V32.0001ZM54.7 32.0001H68.1367V27.6654H59.2419V24.7493H67.1909V20.7297H59.2419V17.9455H68.018V13.6108H54.7V32.0001ZM42.9077 32.0001H47.4974V18.0764H52.4647V13.6108H37.9399V18.0764H42.9077V32.0001ZM20.0686 32.0001H24.6106V21.9118L31.6836 32.0001H35.7047V13.6108H31.1632V23.3308L24.3501 13.6108H20.0686V32.0001ZM13.2201 32.0001H17.8329V13.6108H13.2201V32.0001ZM100.06 32.0001H104.673V13.6108H100.06V32.0001Z" fill="#861414"/>
<path fill-rule="evenodd" clip-rule="evenodd" d="M10.9848 0C17.0515 0 21.9696 4.91758 21.9696 10.9848H10.9848V21.9691C4.91807 21.9691 0 17.0515 0 10.9848C0 4.91758 4.91807 0 10.9848 0Z" fill="#D1D1D1"/>
<path fill-rule="evenodd" clip-rule="evenodd" d="M10.9848 3.2915C15.2333 3.2915 18.6772 6.73549 18.6772 10.984H10.9848V18.6764C6.7363 18.6764 3.29183 15.2324 3.29183 10.984C3.29183 6.73549 6.7363 3.2915 10.9848 3.2915Z" fill="#818181"/>
</svg>
